<?xml version="1.0" encoding="UTF-8"?>
<svg xmlns="http://www.w3.org/2000/svg" width="1250" height="1390" viewBox="0 0 1250 1390">
  <rect width="1250" height="1390" fill="#f7f3e7"/>
  <rect x="36" y="36" width="1178" height="1318" rx="42" fill="#f7f3e7" stroke="#04120f" stroke-width="22"/>
  <rect x="66" y="66" width="1118" height="1258" rx="20" fill="none" stroke="#35d6a4" stroke-width="5"/>
  <rect x="92" y="92" width="1066" height="1206" rx="16" fill="none" stroke="#04120f" stroke-width="2" stroke-dasharray="28 18" opacity="0.30"/>

  <rect x="58" y="58" width="88" height="88" rx="14" fill="#04120f"/>
  <rect x="82" y="82" width="40" height="40" rx="8" fill="#f7f3e7"/>
  <circle cx="102" cy="102" r="12" fill="#04120f"/>
  <rect x="1104" y="58" width="88" height="88" rx="14" fill="#04120f"/>
  <rect x="1128" y="82" width="40" height="40" rx="8" fill="#f7f3e7"/>
  <path d="M1148 83 L1170 121 L1126 121 Z" fill="#04120f"/>
  <rect x="58" y="1244" width="88" height="88" rx="14" fill="#04120f"/>
  <rect x="82" y="1268" width="40" height="40" rx="8" fill="#f7f3e7"/>
  <path d="M102 1269 L125 1289 L102 1311 L79 1289 Z" fill="#04120f"/>
  <rect x="1104" y="1244" width="88" height="88" rx="14" fill="#04120f"/>
  <rect x="1128" y="1268" width="40" height="40" rx="8" fill="#f7f3e7"/>
  <g stroke="#04120f" stroke-width="7" stroke-linecap="round">
    <path d="M1128 1310 L1169 1269"/>
    <path d="M1138 1317 L1177 1278"/>
    <path d="M1123 1300 L1158 1265"/>
  </g>

  <g opacity="0.94" fill="#04120f">
    <rect x="150" y="224" width="120" height="18" rx="9"/>
    <rect x="968" y="224" width="132" height="18" rx="9"/>
    <path d="M162 812 C248 758 304 790 374 742 C442 696 518 702 592 760 C666 818 742 824 820 774 C914 714 984 752 1074 688" fill="none" stroke="#04120f" stroke-width="10" stroke-linecap="round" opacity="0.36"/>
    <path d="M210 940 H1040 M250 990 H1000 M310 1040 H940" stroke="#04120f" stroke-width="7" stroke-linecap="round" opacity="0.22"/>
    <circle cx="210" cy="724" r="18" fill="#39e59f"/>
    <circle cx="1034" cy="774" r="18" fill="#836bff"/>
    <circle cx="278" cy="1138" r="14" fill="#ffb33d"/>
    <circle cx="982" cy="1116" r="14" fill="#35a9ff"/>
  </g>

  <text x="625" y="245" text-anchor="middle" font-family="Arial, PingFang SC, Microsoft YaHei, sans-serif" font-size="92" font-weight="850" letter-spacing="0" fill="#04120f">增强现实乐器</text>
  <text x="625" y="392" text-anchor="middle" font-family="Arial, PingFang SC, Microsoft YaHei, sans-serif" font-size="136" font-weight="900" letter-spacing="0" fill="#04120f">合成器</text>
  <text x="625" y="505" text-anchor="middle" font-family="Arial, Helvetica, sans-serif" font-size="78" font-weight="760" letter-spacing="0" fill="#244a55">synthesizer</text>

  <g id="non-qr-data-signature" fill="#04120f" opacity="0.96">
    <rect x="298.0" y="570.0" width="17.7" height="34.0" rx="4"/>
    <rect x="353.3" y="570.0" width="17.7" height="34.0" rx="4"/>
    <rect x="381.0" y="570.0" width="17.7" height="34.0" rx="4"/>
    <rect x="436.3" y="570.0" width="17.7" height="34.0" rx="4"/>
    <rect x="519.3" y="570.0" width="17.7" height="34.0" rx="4"/>
    <rect x="547.0" y="570.0" width="17.7" height="34.0" rx="4"/>
    <rect x="574.6" y="570.0" width="17.7" height="34.0" rx="4"/>
    <rect x="657.6" y="570.0" width="17.7" height="34.0" rx="4"/>
    <rect x="713.0" y="570.0" width="17.7" height="34.0" rx="4"/>
    <rect x="740.6" y="570.0" width="17.7" height="34.0" rx="4"/>
    <rect x="796.0" y="570.0" width="17.7" height="34.0" rx="4"/>
    <rect x="879.0" y="570.0" width="17.7" height="34.0" rx="4"/>
    <rect x="906.6" y="570.0" width="17.7" height="34.0" rx="4"/>
    <rect x="934.3" y="570.0" width="17.7" height="34.0" rx="4"/>
  </g>

  <rect x="318" y="654" width="614" height="92" rx="22" fill="none" stroke="#04120f" stroke-width="6" opacity="0.72"/>
  <text x="625" y="714" text-anchor="middle" font-family="Arial, Helvetica, sans-serif" font-size="34" font-weight="850" letter-spacing="0" fill="#04120f">SYN-001 · IMAGE TARGET</text>
  <text x="625" y="1204" text-anchor="middle" font-family="Arial, Helvetica, sans-serif" font-size="34" font-weight="850" letter-spacing="0" fill="#244a55">Secure AR Access</text>
</svg>
